<svg width="48" height="49" viewBox="0 0 48 49" fill="none" xmlns="http://www.w3.org/2000/svg">
<g filter="url(#filter0_d_3_1142)">
<rect x="8" y="0.5" width="32" height="32" rx="16" fill="#23262F"/>
<path d="M23.6538 10.8687L24 11.201L24.3462 10.8687C25.2301 10.0205 26.4287 9.5 27.75 9.5C30.4654 9.5 32.6667 11.7013 32.6667 14.4167C32.6667 16.8697 31.3277 18.8031 29.6384 20.2698C27.9486 21.7367 25.9604 22.6884 24.7983 23.1665C24.282 23.3789 23.718 23.3789 23.2017 23.1665C22.0396 22.6884 20.0514 21.7368 18.3616 20.2698C16.6723 18.8032 15.3333 16.8697 15.3333 14.4167C15.3333 11.7013 17.5346 9.5 20.25 9.5C21.5713 9.5 22.7699 10.0205 23.6538 10.8687Z" stroke="#989898"/>
</g>
<defs>
<filter id="filter0_d_3_1142" x="0" y="0.5" width="48" height="48" filterUnits="userSpaceOnUse" color-interpolation-filters="sRGB">
<feFlood flood-opacity="0" result="BackgroundImageFix"/>
<feColorMatrix in="SourceAlpha" type="matrix" values="0 0 0 0 0 0 0 0 0 0 0 0 0 0 0 0 0 0 127 0" result="hardAlpha"/>
<feMorphology radius="8" operator="erode" in="SourceAlpha" result="effect1_dropShadow_3_1142"/>
<feOffset dy="8"/>
<feGaussianBlur stdDeviation="8"/>
<feColorMatrix type="matrix" values="0 0 0 0 0.0583333 0 0 0 0 0.0583333 0 0 0 0 0.0583333 0 0 0 0.2 0"/>
<feBlend mode="multiply" in2="BackgroundImageFix" result="effect1_dropShadow_3_1142"/>
<feBlend mode="normal" in="SourceGraphic" in2="effect1_dropShadow_3_1142" result="shape"/>
</filter>
</defs>
</svg>
