<svg width="16" height="17" viewBox="0 0 16 17" fill="none" xmlns="http://www.w3.org/2000/svg">
<path d="M8 1.83337C7.63181 1.83337 7.33334 2.13185 7.33334 2.50004V4.50004C7.33334 4.86823 7.63181 5.16671 8 5.16671C8.36819 5.16671 8.66667 4.86823 8.66667 4.50004V2.50004C8.66667 2.13185 8.36819 1.83337 8 1.83337Z" fill="#FCFCFD"/>
<path d="M8 11.8334C7.63181 11.8334 7.33334 12.1319 7.33334 12.5V14.5C7.33334 14.8682 7.63181 15.1667 8 15.1667C8.36819 15.1667 8.66667 14.8682 8.66667 14.5V12.5C8.66667 12.1319 8.36819 11.8334 8 11.8334Z" fill="#FCFCFD"/>
<path d="M14 7.83337C14.3682 7.83337 14.6667 8.13185 14.6667 8.50004C14.6667 8.86823 14.3682 9.16671 14 9.16671H12C11.6318 9.16671 11.3333 8.86823 11.3333 8.50004C11.3333 8.13185 11.6318 7.83337 12 7.83337H14Z" fill="#FCFCFD"/>
<path d="M4.66667 8.50004C4.66667 8.13185 4.36819 7.83337 4 7.83337H2C1.63181 7.83337 1.33334 8.13185 1.33334 8.50004C1.33334 8.86823 1.63181 9.16671 2 9.16671H4C4.36819 9.16671 4.66667 8.86823 4.66667 8.50004Z" fill="#FCFCFD"/>
<path d="M11.7713 3.78606C12.0316 3.52571 12.4537 3.52571 12.7141 3.78606C12.9744 4.04641 12.9744 4.46852 12.7141 4.72887L11.2999 6.14308C11.0395 6.40343 10.6174 6.40343 10.3571 6.14308C10.0967 5.88273 10.0967 5.46062 10.3571 5.20027L11.7713 3.78606Z" fill="#FCFCFD"/>
<path d="M5.64296 10.857C5.38261 10.5967 4.9605 10.5967 4.70015 10.857L3.28593 12.2712C3.02558 12.5316 3.02558 12.9537 3.28593 13.214C3.54628 13.4744 3.96839 13.4744 4.22874 13.214L5.64296 11.7998C5.90331 11.5395 5.90331 11.1174 5.64296 10.857Z" fill="#FCFCFD"/>
<path d="M12.7141 12.2713C12.9744 12.5317 12.9744 12.9538 12.7141 13.2141C12.4537 13.4745 12.0316 13.4745 11.7713 13.2141L10.357 11.7999C10.0967 11.5396 10.0967 11.1174 10.357 10.8571C10.6174 10.5967 11.0395 10.5967 11.2999 10.8571L12.7141 12.2713Z" fill="#FCFCFD"/>
<path d="M5.64302 6.14299C5.90337 5.88265 5.90337 5.46054 5.64302 5.20019L4.22881 3.78597C3.96846 3.52562 3.54635 3.52562 3.286 3.78597C3.02565 4.04632 3.02565 4.46843 3.286 4.72878L4.70021 6.14299C4.96056 6.40334 5.38267 6.40334 5.64302 6.14299Z" fill="#FCFCFD"/>
</svg>
